<?xml version="1.0" standalone="no"?>
<!DOCTYPE svg PUBLIC "-//W3C//DTD SVG 20010904//EN"
 "http://www.w3.org/TR/2001/REC-SVG-20010904/DTD/svg10.dtd">
<svg version="1.0" xmlns="http://www.w3.org/2000/svg"
 width="1024.000000pt" height="1024.000000pt" viewBox="0 0 1024.000000 1024.000000"
 preserveAspectRatio="xMidYMid meet">

<g transform="translate(0.000000,1024.000000) scale(0.100000,-0.100000)"
fill="#000000" stroke="none">
<path d="M5022 9459 c-84 -9 -170 -23 -190 -32 -42 -16 -117 -37 -147 -41 -22
-2 -118 -44 -204 -88 -29 -15 -59 -28 -66 -28 -7 0 -18 -7 -26 -16 -7 -8 -29
-24 -48 -35 -50 -27 -72 -41 -104 -66 -16 -13 -34 -23 -41 -23 -7 0 -38 -24
-68 -52 -30 -29 -86 -80 -126 -113 -39 -33 -69 -65 -67 -70 1 -6 -24 -35 -56
-65 -32 -30 -59 -62 -59 -71 0 -9 -9 -23 -21 -30 -17 -12 -25 -28 -28 -61 -1
-5 -8 -8 -16 -8 -9 0 -19 -8 -22 -17 -4 -10 -22 -39 -40 -64 -18 -26 -33 -49
-33 -53 0 -4 -20 -37 -44 -74 -60 -93 -136 -231 -136 -248 0 -15 -4 -25 -38
-91 -12 -23 -22 -54 -22 -68 0 -14 -9 -36 -20 -48 -11 -12 -18 -27 -15 -35 2
-7 0 -20 -5 -30 -14 -24 -40 -102 -46 -137 -3 -16 -12 -41 -21 -53 -8 -13 -12
-26 -9 -29 3 -3 0 -15 -6 -27 -6 -11 -12 -31 -14 -43 -2 -21 -33 -137 -55
-209 -5 -17 -11 -44 -13 -60 -3 -16 -10 -47 -16 -69 -15 -54 -61 -255 -64
-281 -2 -11 -6 -26 -9 -31 -4 -6 -9 -30 -12 -54 -3 -23 -11 -49 -17 -56 -6 -8
-12 -24 -12 -36 -3 -33 -16 -91 -43 -192 -14 -49 -26 -101 -28 -115 -2 -14
-15 -68 -29 -120 -15 -52 -27 -106 -26 -119 0 -13 -5 -29 -10 -36 -6 -7 -15
-38 -21 -70 -6 -32 -17 -68 -25 -80 -8 -12 -16 -50 -19 -84 -3 -34 -9 -70 -14
-79 -8 -16 -35 -104 -65 -214 -7 -26 -9 -49 -4 -50 4 -2 -1 -27 -12 -57 -10
-30 -17 -57 -15 -62 3 -4 1 -10 -5 -14 -5 -3 -10 -19 -10 -36 0 -16 -4 -37 -9
-47 -10 -17 -32 -99 -32 -117 -1 -5 -4 -14 -9 -20 -4 -5 -13 -44 -20 -85 -6
-41 -18 -85 -26 -98 -8 -12 -14 -28 -12 -35 4 -22 -14 -82 -29 -99 -12 -14
-13 -21 -4 -32 8 -10 9 -16 1 -21 -17 -10 -37 -68 -55 -157 -10 -46 -22 -92
-28 -103 -7 -11 -13 -27 -14 -35 -4 -30 -43 -166 -52 -181 -5 -9 -5 -22 0 -30
11 -18 11 -32 0 -24 -12 7 -22 -9 -25 -38 -4 -35 -35 -136 -61 -197 -13 -30
-31 -80 -40 -110 -9 -30 -27 -83 -40 -118 -13 -35 -21 -70 -18 -78 3 -8 1 -14
-5 -14 -5 0 -15 -21 -22 -47 -7 -27 -16 -52 -20 -58 -9 -13 -43 -114 -46 -140
-1 -11 -21 -69 -44 -130 -23 -60 -44 -119 -47 -130 -4 -11 -11 -23 -16 -26 -5
-4 -11 -20 -13 -37 -2 -16 -13 -54 -25 -83 -11 -30 -32 -88 -46 -129 -13 -41
-33 -90 -44 -108 -10 -19 -17 -37 -14 -42 3 -5 -4 -23 -14 -42 -16 -27 -70
-164 -122 -313 -31 -90 -36 -127 -23 -180 28 -112 62 -184 100 -214 30 -23
130 -58 140 -48 6 6 -124 137 -136 137 -3 0 -13 9 -23 20 -20 24 -11 26 15 3
17 -15 18 -15 18 0 0 10 2 17 5 17 3 0 84 -39 180 -86 184 -90 248 -138 289
-215 25 -48 16 -76 -37 -114 -51 -37 -74 -92 -57 -138 25 -73 119 -150 195
-160 29 -3 30 -6 35 -61 5 -51 10 -62 43 -92 20 -19 45 -34 56 -34 11 0 22 -6
24 -12 4 -10 8 -9 16 2 9 13 15 13 43 -3 30 -17 33 -18 45 -1 10 14 15 15 27
5 9 -7 21 -11 28 -8 8 3 5 6 -7 6 -32 2 -4 20 40 26 22 3 54 9 70 12 36 7 198
7 240 0 45 -7 152 -36 183 -49 15 -7 39 -23 53 -36 l27 -24 -24 -59 c-28 -68
-30 -96 -9 -146 8 -19 15 -39 15 -44 0 -15 -27 -10 -33 5 -4 9 -15 13 -29 10
-13 -2 -44 -7 -70 -12 -27 -5 -48 -6 -48 -2 0 11 35 40 48 40 7 0 12 4 12 9 0
6 -11 7 -27 2 -16 -5 -53 -14 -83 -21 -30 -7 -116 -32 -190 -57 -74 -24 -148
-46 -165 -47 -16 -2 -37 -6 -45 -9 -41 -15 -160 -46 -195 -51 -62 -9 -99 -16
-112 -21 -20 -7 -15 -27 5 -21 10 3 51 10 92 16 88 12 203 28 245 36 17 3 57
14 89 25 33 10 61 17 63 15 12 -12 -94 -63 -119 -58 -5 1 -8 -2 -8 -6 0 -5
-10 -8 -22 -7 -13 1 -32 -2 -43 -6 -11 -5 -46 -16 -77 -24 -60 -17 -77 -35
-34 -35 24 0 121 20 204 41 23 7 42 16 42 22 0 7 4 7 11 0 9 -9 19 -8 40 3 20
10 29 11 29 3 0 -12 76 -8 114 7 14 5 17 3 14 -7 -2 -7 -29 -18 -59 -25 -30
-6 -88 -23 -129 -39 -41 -15 -84 -27 -95 -27 -26 2 -75 -18 -75 -29 0 -10 1
-10 135 22 50 12 100 23 112 24 12 2 34 6 50 9 49 11 77 16 110 20 18 3 37 7
43 11 5 3 18 2 27 -4 15 -8 14 -10 -12 -16 -17 -4 -37 -9 -45 -12 -8 -3 -26
-7 -40 -9 -33 -4 -123 -44 -116 -51 3 -3 27 -2 53 3 26 4 55 8 63 8 8 1 20 4
26 8 6 4 37 12 70 17 32 6 95 17 139 25 44 8 81 13 84 11 2 -2 -10 -7 -25 -10
-16 -4 -50 -15 -76 -26 -26 -10 -54 -19 -63 -19 -12 0 -15 -6 -10 -22 6 -21 6
-21 -6 -6 -13 16 -20 15 -104 -8 -123 -35 -120 -33 -109 -44 5 -5 30 -4 59 2
56 11 73 14 130 22 22 3 53 8 69 11 18 4 32 1 37 -6 6 -10 11 -10 25 2 9 8 27
14 38 14 12 0 22 8 24 19 3 16 0 18 -19 11 -13 -4 -35 -8 -49 -10 -16 -1 -18
-1 -3 2 12 2 27 11 33 19 7 8 27 14 44 14 17 0 26 -4 20 -8 -6 -4 -13 -18 -17
-31 -6 -23 -5 -24 46 -18 29 4 69 9 90 12 20 3 37 2 37 -3 0 -8 -214 -57 -242
-55 -10 1 -18 -2 -18 -6 0 -5 -22 -11 -50 -15 -27 -4 -52 -11 -56 -17 -4 -7 6
-8 28 -4 18 3 51 7 72 10 22 2 43 10 47 16 4 8 8 8 10 0 4 -10 77 -1 245 32
40 8 115 14 168 13 74 -1 96 2 96 12 0 16 22 11 28 -6 2 -6 -16 -16 -40 -22
-233 -58 -450 -129 -456 -148 -3 -11 0 -12 14 -4 21 10 270 78 319 87 17 2 41
7 55 10 56 12 85 16 139 21 31 2 79 11 106 18 65 18 145 28 145 18 0 -4 -40
-19 -90 -32 -49 -13 -90 -27 -90 -30 0 -3 -19 -7 -42 -8 -50 -2 -138 -24 -138
-33 0 -4 -8 -5 -18 -2 -21 5 -72 -13 -72 -26 0 -5 30 -3 68 4 37 8 106 18 153
24 47 6 119 20 160 31 41 11 82 23 92 25 10 2 27 7 38 10 10 4 19 2 19 -3 0
-9 -78 -38 -230 -87 -30 -10 -50 -20 -43 -22 25 -9 293 56 393 94 8 4 19 5 23
4 4 0 21 6 37 14 17 9 30 13 30 10 0 -2 15 4 33 15 34 21 47 25 47 13 0 -16
-87 -62 -165 -88 -132 -44 -165 -57 -160 -64 4 -7 206 40 320 75 33 10 67 19
75 20 8 2 16 8 18 13 5 16 22 13 22 -4 0 -8 6 -15 13 -15 6 0 3 -7 -8 -16 -11
-8 -19 -20 -17 -25 1 -6 -2 -8 -7 -5 -5 4 -12 0 -15 -6 -3 -7 -3 -3 0 10 6 25
-13 31 -23 6 -3 -8 -12 -13 -20 -10 -7 3 -16 -1 -19 -9 -3 -7 -12 -11 -20 -8
-8 3 -14 0 -14 -6 0 -6 -7 -8 -15 -5 -8 4 -15 1 -15 -5 0 -6 1 -11 3 -11 1 0
51 9 111 20 60 10 113 17 117 14 4 -2 10 0 13 5 3 5 15 7 25 4 11 -3 49 5 86
17 36 12 80 24 98 27 18 3 66 14 107 24 41 11 82 22 90 24 8 2 15 4 15 5 0 1
20 3 44 5 24 2 39 -1 35 -5 -5 -5 -83 -32 -174 -60 -221 -69 -253 -81 -241
-93 7 -7 28 -5 63 6 103 30 248 67 263 67 8 0 15 5 15 11 0 5 3 8 8 6 4 -3 54
6 112 19 58 13 114 24 125 24 18 0 18 -2 -5 -20 -14 -11 -30 -20 -36 -20 -6 0
-84 -23 -175 -51 -90 -28 -172 -53 -181 -56 -18 -5 -25 -23 -9 -23 5 0 71 16
147 36 77 20 146 37 154 38 9 1 21 5 28 10 6 4 17 4 22 1 6 -3 10 -2 10 4 0 6
7 8 15 5 8 -4 15 -1 15 5 0 6 8 11 18 11 10 0 28 7 40 16 12 8 22 12 22 9 0
-3 10 1 21 9 12 8 27 12 34 9 8 -2 25 3 40 13 14 9 28 14 31 11 3 -2 -11 -14
-30 -26 -19 -12 -36 -25 -38 -29 -2 -4 -23 -19 -48 -33 -38 -22 -61 -31 -110
-44 -21 -5 -120 -58 -116 -62 6 -6 105 28 179 62 31 14 59 25 63 25 4 0 16 7
26 17 13 11 18 12 18 3 0 -10 4 -9 17 1 9 8 18 13 20 12 14 -11 14 1 0 11 -23
18 -11 26 48 30 25 2 49 7 52 10 12 12 22 6 16 -10 -5 -14 -3 -15 17 -4 16 9
19 14 10 20 -9 5 -9 9 -1 14 6 4 11 3 11 -3 0 -6 7 -7 17 -4 12 5 14 3 7 -8
-4 -8 -10 -25 -12 -38 -2 -19 0 -22 10 -14 18 15 50 19 68 8 13 -8 13 -7 1 8
-7 9 -18 14 -24 10 -6 -4 -7 -1 -3 6 5 7 14 10 22 7 7 -3 16 -1 20 5 5 9 45
28 69 33 6 1 20 8 33 14 12 7 27 10 32 7 6 -3 10 -1 10 5 0 8 9 10 23 6 14 -3
32 1 43 9 23 17 54 19 54 4 0 -6 -6 -9 -14 -6 -8 3 -16 3 -18 -2 -2 -4 -23
-16 -48 -28 -32 -15 -47 -18 -52 -9 -6 8 -8 8 -8 -1 0 -7 -6 -13 -13 -13 -7 0
-26 -14 -42 -30 -34 -35 -32 -36 65 -9 41 11 86 21 100 22 14 1 30 9 37 17 7
8 13 11 13 6 0 -5 9 -1 21 10 17 16 22 16 29 4 7 -11 10 -11 10 -2 0 20 51 36
73 23 11 -7 17 -8 17 -1 0 5 7 10 15 10 30 0 14 -17 -27 -29 -24 -7 -62 -21
-85 -32 -24 -10 -47 -19 -53 -19 -5 0 -10 -5 -10 -11 0 -5 -5 -7 -10 -4 -6 3
-13 -1 -16 -10 -4 -9 -13 -14 -21 -11 -7 3 -16 -1 -20 -10 -7 -20 3 -29 19
-17 14 11 176 63 196 63 7 0 12 5 12 11 0 6 7 9 15 5 8 -3 15 -2 15 2 0 4 10
9 22 9 13 1 28 10 35 19 9 12 13 13 13 5 0 -11 3 -11 15 -1 8 7 15 9 15 6 0
-4 10 -1 22 5 12 7 36 11 53 11 34 -1 171 32 224 54 19 8 38 11 43 6 7 -7
-117 -50 -217 -73 -127 -31 -275 -92 -283 -117 -4 -12 9 -10 53 8 24 10 72 21
103 23 12 1 22 5 22 8 0 4 15 10 33 13 17 3 39 8 47 9 8 2 41 7 73 11 31 5 60
12 63 17 3 5 10 7 15 3 5 -3 16 -1 24 6 7 6 19 10 27 9 7 -2 23 2 36 9 12 7
37 15 55 18 18 3 41 6 52 8 34 5 129 38 144 50 8 6 17 10 20 10 3 -1 16 2 29
7 30 12 79 12 67 0 -6 -4 -44 -21 -85 -36 -41 -14 -82 -29 -90 -32 -8 -3 -28
-7 -44 -9 -17 -3 -33 -9 -37 -15 -4 -7 -12 -8 -18 -5 -6 4 -11 2 -11 -5 0 -7
-3 -9 -7 -6 -3 4 -13 2 -20 -5 -11 -9 -17 -9 -24 3 -6 9 -9 10 -9 2 0 -16 -57
-46 -70 -38 -6 3 -10 2 -10 -3 0 -5 -12 -12 -27 -15 -39 -8 -130 -50 -118 -54
6 -1 57 8 115 22 127 30 123 29 135 36 9 6 61 21 77 23 3 1 9 4 13 8 4 4 13 4
21 1 8 -3 14 0 14 7 0 7 7 10 15 6 8 -3 21 1 28 9 10 9 18 10 25 3 6 -6 12 -6
16 1 4 5 13 8 20 5 8 -3 17 -1 21 5 3 6 11 11 16 11 6 0 7 -4 4 -10 -3 -6 1
-7 9 -4 9 3 16 10 16 16 0 5 4 7 9 3 5 -3 13 0 17 6 4 8 9 7 15 -2 7 -11 9
-10 9 5 0 15 3 16 15 6 12 -10 15 -9 15 5 0 11 5 15 15 11 8 -3 15 -1 15 4 0
6 9 10 19 10 11 0 23 5 26 10 4 6 11 8 16 5 5 -4 12 0 15 9 3 8 12 12 19 9 8
-2 20 -1 27 3 18 11 48 12 54 2 3 -4 2 -8 -3 -9 -30 -3 -48 -9 -51 -19 -2 -5
-8 -8 -13 -4 -5 3 -9 0 -9 -6 0 -7 -7 -10 -15 -6 -8 3 -15 1 -15 -3 0 -12 -60
-32 -71 -25 -5 3 -9 1 -9 -4 0 -11 -175 -81 -252 -102 -27 -7 -48 -16 -48 -20
0 -4 -6 -7 -12 -7 -20 0 -91 -22 -108 -32 -47 -31 51 -9 270 60 53 16 105 31
115 33 32 6 141 46 182 66 37 18 62 18 33 0 -9 -6 -10 -10 -3 -10 7 0 16 8 22
17 6 12 13 14 23 7 15 -12 63 -10 98 3 19 8 28 7 37 -6 12 -15 13 -15 7 1 -4
12 3 18 28 24 18 4 38 9 43 11 6 1 19 4 30 5 11 2 22 6 25 10 5 6 39 15 90 23
8 1 23 6 34 10 10 4 31 8 46 9 15 1 25 5 22 10 -3 5 2 7 11 3 10 -3 17 -2 17
4 0 6 4 8 9 5 5 -4 12 0 14 6 4 10 8 9 16 -2 9 -13 11 -12 11 3 0 10 5 15 10
12 6 -3 10 -1 10 6 0 7 3 10 6 6 3 -3 27 2 53 12 25 10 56 17 69 16 12 -1 22
2 22 7 0 5 8 8 18 6 9 -2 26 5 37 15 17 16 20 16 23 3 2 -9 7 -14 12 -11 5 3
7 12 4 19 -6 17 51 30 74 17 13 -7 10 -12 -16 -25 -18 -9 -32 -13 -32 -9 0 5
-4 3 -8 -3 -8 -11 -84 -42 -117 -47 -11 -1 -24 -5 -30 -8 -5 -4 -20 -5 -32 -4
-13 1 -23 -2 -23 -6 0 -5 -15 -12 -32 -17 -39 -12 -215 -79 -231 -89 -6 -4 -2
-9 10 -14 13 -5 45 0 84 13 35 11 100 29 144 40 44 11 89 22 100 25 11 3 28 6
38 6 9 1 17 5 17 10 0 5 9 7 20 4 11 -3 20 -1 20 4 0 6 6 9 13 7 6 -1 23 4 36
11 18 10 25 10 31 1 5 -9 9 -9 14 -1 4 6 4 11 -1 11 -4 1 19 12 52 26 97 41
185 85 185 92 0 4 -5 14 -11 22 -9 12 -10 12 -5 -3 4 -12 2 -17 -6 -15 -7 3
-19 -2 -27 -9 -10 -11 -16 -11 -21 -3 -11 18 -18 17 -34 -5 -12 -15 -15 -16
-16 -5 0 10 37 34 97 64 123 61 175 94 168 105 -9 16 -305 -121 -305 -141 0
-4 -13 -14 -29 -23 -30 -15 -61 -11 -61 7 0 6 7 7 16 4 8 -3 12 -2 9 4 -3 6
-2 10 3 10 5 0 26 16 46 35 20 19 42 34 48 32 6 -1 12 3 15 10 6 17 -30 9
-142 -33 -55 -20 -110 -38 -122 -38 -11 -1 -19 -4 -16 -8 4 -7 -21 -12 -54
-11 -7 1 -13 -3 -13 -9 0 -5 -6 -8 -12 -7 -7 1 -24 -2 -38 -8 -14 -6 -42 -18
-62 -26 -21 -9 -38 -13 -38 -9 0 4 -4 2 -8 -4 -9 -14 -153 -65 -164 -58 -4 3
-8 0 -8 -6 0 -7 -7 -10 -15 -6 -8 3 -15 2 -15 -2 0 -7 -81 -33 -96 -31 -4 0
-10 -4 -13 -10 -4 -6 -16 -12 -26 -14 -11 -1 -24 -5 -30 -9 -14 -8 -94 -29
-130 -34 -29 -4 -29 -4 9 17 21 11 45 22 55 24 9 2 38 13 64 24 27 12 53 19
58 15 5 -3 9 0 9 6 0 6 5 8 10 5 6 -3 10 -2 10 3 0 5 12 10 26 10 15 0 30 5
34 12 4 7 13 9 19 6 6 -4 11 -2 11 4 0 7 7 10 15 6 8 -3 15 0 15 6 0 6 3 8 7
5 3 -4 12 -2 20 4 7 6 13 9 13 5 0 -4 14 1 30 9 17 9 35 13 40 10 6 -3 10 -1
10 6 0 7 3 9 7 6 3 -4 12 1 19 11 12 15 15 15 24 2 8 -13 11 -11 16 8 5 17 9
20 15 11 6 -10 12 -9 28 5 16 15 21 16 21 5 0 -11 2 -11 9 -1 7 12 24 18 54
21 4 1 7 8 7 16 0 8 5 15 11 15 5 0 7 5 4 10 -4 6 -13 7 -23 1 -9 -5 -35 -11
-57 -14 -22 -3 -48 -9 -58 -12 -11 -5 -17 -2 -17 8 0 8 15 20 33 26 17 7 32
10 32 9 0 -2 17 8 39 21 30 19 42 22 56 13 14 -8 17 -7 16 5 -1 10 11 19 32
25 17 5 32 13 32 19 0 6 -8 8 -17 5 -10 -3 -31 -8 -48 -12 -16 -4 -63 -18
-104 -31 -40 -13 -75 -22 -78 -19 -11 11 8 38 22 32 8 -3 15 -1 15 4 0 18 -17
19 -40 3 -13 -10 -31 -18 -40 -19 -36 -4 -84 -15 -100 -24 -9 -5 -30 -12 -46
-14 -16 -3 -44 -10 -61 -15 -64 -19 -42 8 37 45 44 21 80 42 80 46 0 11 -5 10
-80 -11 -36 -10 -100 -28 -143 -41 -43 -12 -81 -19 -85 -16 -3 3 -14 -1 -24
-11 -11 -10 -18 -12 -18 -4 0 12 89 55 97 47 6 -6 53 35 53 46 0 15 -31 8
-103 -22 -40 -16 -84 -41 -99 -55 -16 -14 -28 -22 -28 -17 0 6 11 17 25 26 14
9 25 20 25 25 0 13 -44 0 -53 -16 -5 -7 -13 -11 -18 -7 -5 3 -16 1 -24 -6 -11
-9 -12 -7 -8 9 3 12 10 18 15 15 6 -4 14 -1 18 6 4 7 18 14 31 15 39 4 40 5
34 15 -16 25 -65 9 -122 -40 -60 -51 -92 -67 -56 -27 24 26 49 101 58 172 3
28 9 56 13 61 12 17 143 104 161 106 9 1 23 2 31 3 8 0 21 5 29 9 10 6 20 2
32 -12 25 -31 59 -35 186 -19 131 17 181 38 251 106 56 56 90 121 102 198 21
124 112 248 252 340 113 75 165 106 180 109 7 1 66 27 130 58 77 37 119 63
123 76 3 11 10 20 15 20 4 0 23 24 41 53 26 40 33 65 36 110 3 66 -13 112 -77
227 -23 41 -60 109 -82 150 -22 41 -56 100 -74 131 -19 31 -34 64 -34 72 0 9
-4 18 -9 22 -39 23 -367 745 -458 1005 -8 25 -24 62 -34 82 -11 21 -19 44 -19
52 0 9 -11 39 -24 68 -13 29 -29 69 -36 88 -6 19 -29 86 -51 148 -21 63 -39
120 -39 128 0 7 -12 39 -26 70 -14 31 -28 72 -31 90 -3 19 -10 37 -14 40 -5 3
-9 15 -9 27 0 27 -35 129 -42 122 -2 -3 -5 10 -5 28 0 17 -5 48 -10 67 -6 19
-23 76 -37 125 -37 124 -68 236 -72 260 -5 36 -34 139 -49 178 -9 21 -13 42
-10 47 3 4 1 19 -4 32 -5 14 -12 40 -15 59 -5 32 -30 126 -43 159 -3 8 -7 31
-9 50 -2 19 -11 67 -20 105 -9 39 -26 113 -39 165 -12 52 -23 107 -24 123 0
15 -8 43 -16 63 -8 20 -13 39 -10 43 5 9 -19 90 -35 120 -7 13 -7 21 -1 21 6
0 4 19 -5 48 -18 59 -46 180 -48 209 0 12 -4 25 -8 29 -5 4 -8 16 -8 27 0 18
-12 76 -45 222 -21 93 -48 218 -50 235 -6 44 -104 394 -137 485 -38 107 -49
136 -72 190 -15 33 -33 72 -41 87 -8 14 -15 31 -15 36 0 13 -62 116 -72 120
-5 2 -8 14 -8 27 0 12 -7 28 -16 36 -8 7 -26 34 -39 59 -13 26 -39 67 -57 91
-18 24 -40 55 -49 69 -9 14 -29 39 -45 55 -16 17 -63 69 -104 115 -86 97 -199
210 -208 210 -4 0 -20 13 -37 28 -57 52 -267 178 -405 243 -63 29 -111 46
-220 79 -122 37 -175 47 -166 31 4 -6 3 -11 -2 -11 -6 0 -13 7 -16 16 -3 8
-14 14 -23 12 -10 -1 -24 1 -32 6 -14 9 -92 15 -256 19 -44 1 -149 -5 -233
-14z m298 -95 c36 -3 85 -7 110 -9 62 -5 149 -21 184 -35 16 -6 41 -13 55 -15
59 -9 117 -27 148 -46 18 -11 37 -18 43 -14 5 3 10 1 10 -5 0 -6 4 -9 8 -6 4
2 41 -11 81 -30 40 -19 79 -34 87 -34 8 0 14 -3 14 -8 0 -7 108 -76 120 -77
19 -1 236 -180 279 -230 14 -16 55 -61 91 -100 64 -68 130 -156 130 -171 0 -4
9 -17 19 -28 25 -26 151 -243 151 -259 0 -19 50 -101 66 -110 11 -6 12 -12 5
-21 -7 -9 -1 -28 23 -67 18 -30 31 -60 28 -67 -2 -7 3 -21 11 -30 13 -15 21
-41 31 -107 2 -11 13 -42 25 -70 12 -27 27 -71 32 -97 6 -26 15 -50 20 -54 5
-3 9 -23 9 -45 0 -22 5 -50 12 -62 6 -12 15 -42 19 -67 10 -66 39 -181 54
-212 9 -18 10 -29 2 -37 -7 -7 -5 -17 5 -33 9 -13 19 -44 23 -68 4 -25 11 -52
15 -60 4 -8 10 -31 13 -50 10 -68 57 -282 64 -293 4 -7 6 -24 4 -39 -1 -15 4
-42 12 -60 8 -18 15 -40 15 -48 0 -8 12 -60 27 -115 15 -55 28 -111 30 -125 1
-14 3 -25 5 -25 1 0 3 -9 5 -20 2 -11 9 -40 15 -65 6 -25 12 -55 15 -68 2 -13
9 -29 15 -37 6 -8 9 -18 6 -23 -7 -12 13 -124 25 -139 7 -7 6 -13 0 -18 -7 -4
-7 -12 -1 -23 6 -9 19 -53 29 -97 11 -44 29 -116 41 -160 29 -111 29 -112 45
-191 17 -85 53 -221 64 -243 5 -9 12 -34 16 -56 3 -22 12 -53 20 -70 7 -16 21
-59 30 -95 10 -36 21 -69 24 -75 3 -5 6 -17 6 -25 1 -16 48 -170 92 -302 15
-43 31 -78 36 -78 5 0 7 -6 4 -14 -7 -17 18 -101 38 -133 8 -12 15 -31 15 -41
0 -11 9 -31 21 -46 11 -14 16 -26 11 -26 -12 0 37 -123 60 -149 9 -11 14 -21
12 -24 -5 -5 16 -57 72 -175 58 -124 77 -168 128 -294 16 -37 34 -72 42 -79 7
-6 11 -16 8 -21 -7 -10 212 -459 229 -470 6 -4 14 -5 18 -3 3 3 4 -6 2 -18 -3
-14 7 -38 28 -67 48 -66 177 -294 225 -400 35 -75 28 -110 -33 -172 -28 -28
-66 -55 -93 -64 -251 -91 -415 -201 -527 -352 -68 -92 -88 -137 -113 -249 -24
-111 -56 -158 -134 -197 -40 -21 -60 -26 -65 -18 -5 8 -19 8 -56 -3 -81 -22
-125 -38 -125 -44 0 -3 -14 -7 -30 -8 -17 -1 -30 2 -30 7 0 6 0 13 0 18 0 4 3
7 8 7 4 1 30 11 57 24 28 13 79 26 115 30 56 5 66 9 77 31 21 42 6 155 -52
395 -81 336 -127 527 -130 550 -2 11 -19 76 -38 145 -19 69 -37 139 -40 155
-3 17 -22 104 -42 195 -20 91 -38 176 -40 190 -2 14 -11 57 -20 95 -17 73 -44
220 -90 485 -14 85 -44 243 -65 350 -21 107 -46 247 -54 310 -15 108 -22 152
-46 275 -18 94 -30 172 -35 211 -7 74 -35 259 -50 338 -8 43 -24 158 -35 255
-26 237 -31 274 -35 281 -2 3 -6 37 -10 75 -4 39 -11 104 -16 145 -6 41 -11
91 -13 110 -2 19 -6 49 -9 65 -6 28 -37 255 -58 430 -5 44 -14 103 -19 130 -5
28 -17 106 -26 175 -8 69 -27 190 -40 270 -14 80 -27 159 -30 175 -10 64 -47
205 -54 205 -7 0 -6 -19 15 -165 8 -55 19 -149 25 -210 6 -60 20 -194 31 -297
12 -103 19 -193 17 -200 -3 -7 -14 28 -27 77 -25 101 -59 220 -71 250 -17 41
-11 -17 9 -85 11 -36 31 -105 46 -155 14 -49 32 -94 38 -100 14 -11 38 -146
36 -205 0 -27 -10 -8 -45 90 -93 264 -142 386 -150 377 -2 -2 3 -24 12 -48 8
-24 31 -93 49 -154 18 -60 41 -128 50 -150 10 -22 28 -74 41 -115 13 -41 34
-106 48 -145 13 -38 27 -95 30 -125 4 -30 14 -103 22 -163 15 -105 14 -175 -1
-88 -20 120 -294 859 -295 796 0 -19 22 -86 110 -325 23 -63 50 -142 60 -175
9 -33 28 -87 40 -120 62 -168 152 -594 166 -790 l4 -50 -16 40 c-9 22 -31 76
-49 120 -18 44 -43 110 -55 147 -12 37 -26 70 -31 74 -5 3 -7 10 -4 15 4 5 1
9 -4 9 -6 0 -27 33 -47 73 -20 39 -51 95 -68 122 -18 28 -49 81 -70 118 -21
38 -40 66 -42 64 -11 -11 30 -97 120 -254 53 -93 109 -202 125 -243 16 -41 42
-104 59 -140 16 -36 37 -90 47 -120 10 -30 24 -67 31 -82 8 -15 16 -42 18 -60
3 -18 10 -58 16 -88 6 -30 13 -83 16 -118 3 -35 14 -112 25 -170 25 -134 37
-204 44 -266 8 -68 31 -211 44 -266 5 -25 26 -139 46 -254 19 -115 40 -215 45
-221 5 -7 7 -14 4 -17 -3 -3 4 -54 15 -112 12 -59 21 -122 21 -140 0 -18 3
-36 7 -40 4 -3 8 -14 9 -24 1 -9 11 -62 22 -117 11 -55 27 -143 37 -195 18
-100 40 -183 55 -212 6 -11 6 -19 0 -23 -6 -3 -6 -15 0 -30 5 -13 16 -61 25
-107 8 -46 20 -85 25 -86 6 -2 8 -8 5 -13 -3 -5 3 -39 14 -76 11 -38 27 -104
36 -148 8 -44 19 -81 25 -83 5 -2 10 -15 10 -28 0 -13 9 -57 19 -97 11 -39 22
-83 24 -97 8 -42 19 -84 25 -95 4 -5 7 -16 8 -25 3 -28 75 -315 86 -342 6 -16
13 -28 17 -28 4 0 6 -12 5 -27 -1 -27 -2 -28 -75 -34 -133 -12 -253 -62 -359
-150 -34 -28 -64 -49 -67 -46 -5 6 -103 377 -128 487 -8 36 -22 90 -30 120 -9
30 -17 64 -19 75 -7 42 -48 232 -63 285 -8 30 -16 64 -18 75 -10 44 -107 468
-135 586 -16 69 -36 168 -44 220 -8 52 -22 132 -31 179 -8 47 -18 103 -21 125
-3 22 -9 72 -15 110 -5 39 -11 86 -13 105 -6 61 -27 203 -31 209 -1 3 -6 36
-9 73 -4 37 -9 77 -12 90 -9 43 -33 183 -39 228 -3 25 -10 68 -15 95 -5 28
-12 68 -15 90 -2 22 -12 83 -20 135 -9 52 -20 124 -25 160 -5 36 -16 110 -24
165 -8 55 -18 132 -21 170 -4 39 -13 108 -21 154 -8 45 -12 86 -10 90 2 3 0
29 -5 56 -5 27 -11 72 -14 99 -11 113 -17 162 -21 176 -2 8 -6 40 -9 70 -6 71
-31 277 -55 460 -11 80 -22 170 -26 200 -3 30 -14 116 -25 190 -11 74 -29 202
-40 284 -11 82 -22 152 -24 156 -3 4 -7 25 -9 46 -10 77 -39 229 -45 236 -4 4
1 -73 10 -172 24 -248 30 -323 35 -415 2 -44 6 -91 10 -105 3 -13 7 -56 10
-95 2 -38 8 -97 13 -130 5 -33 7 -64 4 -68 -3 -4 -2 -16 2 -25 4 -9 8 -30 10
-47 5 -63 17 -185 32 -320 8 -77 16 -161 18 -186 2 -26 6 -55 9 -66 3 -10 8
-41 10 -68 23 -244 28 -292 31 -305 3 -9 7 -40 10 -70 3 -31 15 -125 26 -210
27 -194 33 -242 53 -410 9 -74 25 -182 36 -240 10 -58 24 -143 30 -190 6 -47
19 -141 30 -210 11 -69 22 -143 25 -165 3 -22 10 -69 15 -105 5 -36 12 -90 15
-120 4 -30 13 -95 22 -145 8 -49 16 -101 18 -115 1 -14 14 -79 28 -145 14 -66
28 -140 32 -165 7 -52 64 -315 101 -475 15 -60 28 -123 31 -140 2 -16 16 -73
29 -126 14 -53 27 -107 30 -120 9 -39 12 -54 14 -54 1 0 3 -16 6 -35 2 -19 16
-80 30 -135 14 -55 34 -137 44 -182 11 -45 33 -130 49 -188 17 -58 31 -113 31
-123 0 -9 11 -52 25 -95 14 -43 25 -95 25 -116 0 -118 -85 -235 -206 -285 -38
-15 -87 -30 -109 -32 -22 -3 -47 -7 -55 -10 -23 -9 -130 -10 -130 -1 0 4 -11
7 -25 7 -32 0 -145 51 -164 74 -10 11 -13 36 -11 79 2 34 3 76 4 94 0 27 5 34
35 47 109 45 142 51 316 51 157 0 173 -2 217 -23 60 -29 69 -41 71 -92 1 -36
3 -39 14 -24 23 31 27 84 9 121 -33 69 -185 110 -376 100 -58 -3 -118 -8 -135
-11 -102 -17 -345 -120 -442 -187 -95 -66 -189 -137 -203 -154 -22 -27 -149
-109 -230 -148 -92 -45 -164 -67 -250 -74 -36 -3 -69 -9 -75 -13 -13 -11 -232
33 -273 54 -40 21 -49 36 -21 36 30 0 199 76 228 103 39 36 61 94 49 131 -23
68 -105 122 -230 151 -71 16 -255 22 -333 11 -50 -7 -62 -10 -185 -41 -68 -18
-329 -126 -510 -212 -188 -90 -185 -89 -340 -119 -131 -27 -344 54 -395 148
l-19 36 37 41 c20 22 39 51 42 64 18 72 -75 158 -224 207 -51 16 -103 30 -114
30 -12 0 -44 7 -71 15 -65 20 -211 19 -322 -2 -94 -17 -202 -25 -208 -14 -13
23 57 294 85 327 6 7 9 18 7 26 -3 15 43 148 75 218 25 55 34 77 42 110 4 14
23 68 42 120 20 52 37 111 39 130 4 40 24 128 49 215 10 33 19 71 20 85 1 14
17 72 35 130 45 142 111 388 115 425 1 17 5 37 8 45 13 36 69 260 78 310 5 30
16 75 23 100 8 25 24 92 36 150 12 58 26 114 30 125 5 11 15 56 24 100 9 44
29 143 46 220 16 77 32 151 34 165 2 14 9 50 15 80 6 30 20 100 32 155 11 55
31 150 44 210 25 116 32 151 40 200 3 17 13 64 22 105 9 41 17 80 18 85 0 6 8
44 17 85 20 89 50 245 54 280 8 68 25 164 44 250 11 52 24 122 30 155 5 33 16
96 24 140 8 44 17 96 21 115 3 19 8 49 10 65 6 47 16 107 22 140 9 51 -11 17
-23 -38 -6 -29 -23 -97 -37 -152 -37 -141 -156 -636 -222 -920 -62 -266 -82
-353 -95 -405 -5 -19 -14 -64 -20 -100 -6 -36 -15 -78 -20 -95 -22 -76 -31
-112 -34 -140 -2 -16 -16 -82 -31 -145 -15 -63 -34 -146 -42 -185 -15 -72 -24
-110 -42 -179 -5 -22 -8 -43 -5 -48 3 -4 0 -15 -5 -25 -21 -40 -95 -352 -86
-361 3 -3 1 -10 -4 -16 -9 -10 -68 -240 -76 -296 -6 -38 -104 -409 -122 -460
-8 -25 -16 -52 -18 -60 -1 -8 -5 -22 -8 -30 -14 -37 -46 -156 -111 -410 -8
-30 -28 -104 -46 -165 -17 -60 -33 -121 -35 -135 -1 -14 -14 -52 -28 -85 -14
-34 -35 -99 -46 -145 -11 -47 -29 -110 -40 -141 -10 -31 -24 -83 -31 -115 -7
-33 -14 -62 -17 -66 -4 -7 -96 41 -139 72 -27 20 -45 55 -38 74 3 8 28 30 56
47 98 63 96 148 -7 267 -81 94 -355 241 -479 259 -56 7 -79 38 -64 84 36 110
77 210 138 334 38 77 83 176 99 220 26 71 79 206 102 260 9 23 63 167 88 240
10 28 26 73 36 100 9 28 24 68 31 90 8 22 19 48 24 57 6 10 10 26 10 36 0 9 7
27 15 38 8 12 19 43 25 70 6 27 24 78 40 114 16 36 30 76 32 90 2 14 6 30 10
35 3 6 14 39 23 75 9 36 24 80 32 98 13 26 13 36 4 41 -10 6 -9 12 3 24 9 8
16 23 16 32 0 9 9 37 19 63 10 26 31 92 46 147 40 145 67 227 83 252 7 12 12
30 11 40 -1 10 3 31 9 46 7 16 12 34 12 41 0 6 11 45 25 86 13 41 20 76 15 78
-5 2 -4 13 4 25 12 21 27 70 61 202 8 33 27 103 41 155 14 52 29 111 34 130
21 83 32 127 42 160 6 19 12 46 14 60 2 14 10 52 20 85 9 33 18 71 21 85 2 14
7 32 10 40 3 8 7 24 8 35 4 28 34 161 47 210 13 45 17 67 21 110 2 17 8 41 14
55 10 23 60 237 67 285 2 11 8 38 14 60 7 22 32 126 57 230 92 391 147 591
181 658 8 16 12 32 9 37 -6 9 67 228 89 267 9 15 25 56 36 91 11 35 32 81 45
103 14 21 25 42 25 47 0 5 21 41 47 82 26 40 48 83 49 96 1 13 16 40 32 61 16
21 55 74 88 117 77 103 95 124 179 206 80 77 143 132 204 175 23 17 58 42 78
58 20 15 40 27 46 27 6 0 25 11 43 25 18 14 38 25 44 25 6 0 51 20 100 45 49
25 129 57 177 71 49 14 102 30 118 35 40 12 140 27 245 35 47 3 87 8 90 10 2
3 16 2 30 -1 14 -3 54 -8 90 -11z m-2428 -6716 c-7 -7 -12 -8 -12 -2 0 6 3 14
7 17 3 4 9 5 12 2 2 -3 -1 -11 -7 -17z m553 -1328 c3 -5 1 -10 -4 -10 -6 0
-11 5 -11 10 0 6 2 10 4 10 3 0 8 -4 11 -10z m1602 -54 c-2 -6 -12 -42 -22
-81 -21 -80 -23 -84 -34 -66 -7 11 -17 10 -53 -8 -67 -32 -89 -27 -40 9 23 17
42 33 42 36 0 13 -67 -5 -134 -36 -70 -33 -126 -52 -126 -44 0 2 25 20 55 39
30 20 55 40 55 45 0 12 -47 2 -75 -16 -27 -17 -155 -61 -181 -62 -17 0 -21 4
-17 19 5 19 4 19 -36 -2 -24 -12 -63 -24 -89 -26 -25 -2 -58 -11 -72 -20 -14
-10 -35 -16 -47 -14 -13 1 -23 -1 -23 -6 0 -10 -80 -36 -88 -29 -2 3 6 10 19
15 69 28 199 84 234 101 38 17 104 44 115 46 27 4 92 30 101 40 6 7 17 10 24
8 7 -3 33 3 57 14 41 18 104 32 228 49 66 10 113 5 107 -11z m1400 10 c-3 -8
-9 -47 -13 -87 -6 -66 -15 -88 -35 -89 -3 0 -4 12 -1 28 4 24 3 25 -9 10 -9
-10 -36 -19 -69 -22 l-55 -6 33 17 c33 17 42 33 19 33 -6 0 -44 -15 -82 -34
-39 -19 -72 -32 -74 -30 -6 5 30 44 40 44 10 0 40 23 77 59 26 24 147 91 164
91 6 0 8 -6 5 -14z m-1177 -21 c52 -18 120 -61 120 -75 0 -21 -67 -83 -127
-116 -35 -20 -78 -48 -94 -62 -29 -24 -30 -24 -45 -6 -48 61 -47 55 -27 175
l18 111 55 -5 c30 -4 75 -13 100 -22z m2651 -125 c-16 -14 -19 -20 -8 -20 8 0
20 7 27 15 7 8 17 15 22 15 5 0 2 -7 -6 -16 -9 -8 -14 -20 -11 -25 4 -5 -1 -6
-10 -2 -10 3 -20 1 -24 -5 -3 -6 -22 -14 -40 -17 -19 -3 -42 -10 -52 -16 -14
-7 -19 -6 -19 3 -1 9 -4 9 -13 -2 -7 -9 -25 -17 -41 -18 -17 -1 -32 -6 -35
-11 -3 -5 -17 -11 -31 -12 -14 -2 -30 -10 -36 -18 -7 -9 -13 -10 -17 -4 -9 15
17 35 47 37 13 0 24 5 23 10 -1 4 8 10 21 12 13 2 36 11 53 19 16 9 33 13 38
10 5 -2 12 2 15 11 3 9 12 14 19 11 6 -2 28 6 47 19 43 28 64 31 31 4z m-4736
-29 c3 -5 -21 -15 -52 -21 -32 -6 -68 -15 -81 -20 -36 -15 -40 -11 -7 7 25 14
103 40 127 42 4 1 9 -3 13 -8z m3070 -1 c-3 -5 -12 -10 -18 -10 -7 0 -6 4 3
10 19 12 23 12 15 0z m-2945 -24 c0 -2 -8 -10 -17 -17 -16 -13 -17 -12 -4 4
13 16 21 21 21 13z m3025 -6 c-3 -5 -14 -10 -23 -9 -14 0 -13 2 3 9 27 11 27
11 20 0z m-3112 -17 c-7 -2 -19 -2 -25 0 -7 3 -2 5 12 5 14 0 19 -2 13 -5z
m-245 -54 c-48 -32 -72 -38 -42 -11 34 32 67 51 77 45 5 -3 -11 -18 -35 -34z
m87 31 c-3 -5 -13 -10 -21 -10 -8 0 -12 5 -9 10 3 6 13 10 21 10 8 0 12 -4 9
-10z m65 0 c-36 -11 -50 -11 -50 0 0 6 17 10 38 9 33 -1 34 -2 12 -9z m1220 0
c-19 -13 -30 -13 -30 0 0 6 10 10 23 10 18 0 19 -2 7 -10z m3260 -35 c0 -8 -4
-15 -10 -15 -5 0 -10 7 -10 15 0 8 5 15 10 15 6 0 10 -7 10 -15z m-4404 -32
c-7 -7 -26 7 -26 19 0 6 6 6 15 -2 9 -7 13 -15 11 -17z m4374 17 c0 -5 -7 -10
-16 -10 -8 0 -12 5 -9 10 3 6 10 10 16 10 5 0 9 -4 9 -10z m-4438 -32 c-9 -9
-15 -9 -24 0 -9 9 -7 12 12 12 19 0 21 -3 12 -12z m4322 1 c10 9 16 10 16 2 0
-12 -47 -27 -56 -18 -4 3 -3 11 1 17 6 9 10 9 15 -1 7 -10 11 -10 24 0z m-61
-16 c-7 -2 -19 -2 -25 0 -7 3 -2 5 12 5 14 0 19 -2 13 -5z m-4138 -13 c-3 -5
-10 -10 -16 -10 -5 0 -9 5 -9 10 0 6 7 10 16 10 8 0 12 -4 9 -10z m222 -6 c-3
-3 -12 -4 -19 -1 -8 3 -5 6 6 6 11 1 17 -2 13 -5z m3773 1 c0 -6 -81 -45 -93
-45 -5 0 -4 7 3 15 7 8 21 15 31 15 11 0 19 4 19 8 0 4 9 8 20 9 11 1 20 0 20
-2z m-2664 -80 c-21 -16 -32 -13 -21 4 3 6 14 11 23 11 15 -1 15 -2 -2 -15z
m1634 5 c0 -5 -7 -10 -15 -10 -8 0 -15 5 -15 10 0 6 7 10 15 10 8 0 15 -4 15
-10z m-1490 -6 c0 -9 -32 -33 -44 -34 -5 0 -1 9 9 20 18 20 35 26 35 14z m255
-4 c3 -5 -1 -10 -10 -10 -9 0 -13 5 -10 10 3 6 8 10 10 10 2 0 7 -4 10 -10z
m994 7 c-2 -1 -13 -9 -24 -17 -19 -14 -19 -14 -6 3 7 9 18 17 24 17 6 0 8 -1
6 -3z m-2354 -26 c-3 -6 -11 -11 -17 -11 -6 0 -6 6 2 15 14 17 26 13 15 -4z
m45 9 c0 -5 -4 -10 -10 -10 -5 0 -10 5 -10 10 0 6 5 10 10 10 6 0 10 -4 10
-10z m646 -5 c-11 -8 -25 -15 -30 -15 -6 0 -2 7 8 15 11 8 25 15 30 15 6 0 2
-7 -8 -15z m224 6 c0 -5 -7 -12 -16 -15 -14 -5 -15 -4 -4 9 14 17 20 19 20 6z
m405 -1 c-3 -5 -14 -10 -23 -10 -15 0 -15 2 -2 10 20 13 33 13 25 0z m1482 4
c-3 -3 -12 -4 -19 -1 -8 3 -5 6 6 6 11 1 17 -2 13 -5z m-502 -14 c3 -5 1 -10
-4 -10 -6 0 -11 5 -11 10 0 6 2 10 4 10 3 0 8 -4 11 -10z m245 0 c-19 -13 -30
-13 -30 0 0 6 10 10 23 10 18 0 19 -2 7 -10z m-2163 -15 c23 2 47 6 52 9 5 4
12 2 16 -3 5 -10 -9 -13 -104 -26 -37 -5 -42 -3 -33 8 7 8 8 18 4 23 -4 4 0 3
8 -3 8 -6 34 -9 57 -8z m258 6 c3 -5 1 -12 -5 -16 -5 -3 -10 1 -10 9 0 18 6
21 15 7z m610 -1 c-3 -5 -16 -10 -28 -9 -21 0 -21 1 -2 9 28 12 37 12 30 0z
m1485 0 c0 -5 -4 -10 -10 -10 -5 0 -10 5 -10 10 0 6 5 10 10 10 6 0 10 -4 10
-10z m-1860 -10 c0 -5 -2 -10 -4 -10 -3 0 -8 5 -11 10 -3 6 -1 10 4 10 6 0 11
-4 11 -10z m607 4 c-3 -3 -12 -4 -19 -1 -8 3 -5 6 6 6 11 1 17 -2 13 -5z m783
-4 c0 -5 -4 -10 -10 -10 -5 0 -10 5 -10 10 0 6 5 10 10 10 6 0 10 -4 10 -10z
m-1450 -4 c0 -3 -4 -8 -10 -11 -5 -3 -10 -1 -10 4 0 6 5 11 10 11 6 0 10 -2
10 -4z m379 0 c-11 -11 -109 -43 -109 -36 0 4 19 15 43 23 42 14 74 21 66 13z
m1027 -10 c14 5 12 2 -6 -13 -28 -24 -50 -20 -43 8 4 14 9 17 18 9 7 -6 21 -7
31 -4z m-1474 -18 c-7 -7 -12 -8 -12 -2 0 14 12 26 19 19 2 -3 -1 -11 -7 -17z
m597 0 c-13 -6 -32 -11 -41 -13 -9 -2 -26 -9 -38 -15 -23 -13 -40 -6 -24 10 5
5 18 11 29 13 11 2 27 7 35 10 32 12 45 14 54 9 5 -3 -1 -9 -15 -14z m-629 2
c0 -5 -9 -14 -20 -20 -22 -12 -27 -1 -8 18 14 14 28 16 28 2z m508 -31 c-4
-12 -108 -52 -108 -41 0 3 -5 1 -12 -6 -7 -7 -19 -12 -27 -12 -14 1 -13 3 2
14 9 7 17 19 17 27 0 12 2 12 9 0 8 -12 12 -12 25 -2 8 7 27 14 41 15 14 2 29
6 32 10 10 10 25 7 21 -5z"/>
<path d="M4260 8258 c-14 -5 -45 -28 -69 -51 -126 -121 -194 -314 -193 -548 1
-150 39 -246 107 -275 49 -20 75 -18 117 11 40 27 137 166 172 248 34 77 51
195 51 347 0 125 -2 139 -25 184 -38 74 -100 107 -160 84z"/>
<path d="M5149 8242 c-168 -107 -262 -400 -215 -670 21 -119 66 -188 145 -223
42 -18 47 -19 93 -3 90 30 204 187 243 339 32 121 25 336 -15 440 -31 83 -107
145 -176 145 -17 0 -50 -13 -75 -28z"/>
<path d="M5892 7320 c0 -14 2 -19 5 -12 2 6 2 18 0 25 -3 6 -5 1 -5 -13z"/>
<path d="M3530 7287 c0 -3 -20 -93 -44 -199 -24 -106 -53 -242 -65 -303 -11
-60 -37 -189 -56 -285 -36 -182 -71 -376 -85 -470 -5 -30 -18 -109 -29 -175
-29 -166 -66 -408 -96 -615 -13 -96 -34 -236 -45 -310 -11 -74 -23 -155 -26
-180 -2 -25 -9 -66 -15 -92 -12 -54 -12 -51 -39 -243 -11 -82 -23 -163 -25
-180 -3 -16 -7 -57 -10 -90 -4 -33 -8 -66 -10 -73 -7 -21 -34 -193 -40 -257
-3 -33 -10 -91 -15 -130 -5 -38 -12 -106 -14 -150 l-6 -80 20 60 c11 33 29
121 40 195 11 74 34 212 50 305 16 94 36 220 45 280 8 61 36 234 61 385 54
333 69 428 79 510 27 215 107 730 166 1060 19 110 35 205 79 485 11 68 30 186
44 262 41 234 48 284 42 290 -3 4 -6 4 -6 0z"/>
<path d="M5891 7264 c0 -11 3 -14 6 -6 3 7 2 16 -1 19 -3 4 -6 -2 -5 -13z"/>
<path d="M5889 7120 c0 -41 -2 -93 -4 -115 -8 -105 -15 -255 -20 -410 -4 -158
-8 -234 -20 -470 -3 -49 -7 -160 -10 -245 -9 -259 -16 -433 -20 -470 -2 -19
-6 -96 -10 -170 -3 -74 -8 -162 -11 -195 -2 -33 -7 -105 -9 -160 -3 -55 -7
-129 -10 -165 -6 -85 -16 -362 -18 -517 -1 -68 -5 -123 -8 -123 -3 0 -7 -62
-9 -137 -2 -117 -5 -178 -9 -203 -1 -3 -4 -84 -7 -180 -7 -207 -9 -236 -18
-315 -4 -33 -9 -96 -11 -140 -2 -44 -6 -105 -9 -135 -5 -54 -12 -165 -21 -330
-2 -47 -7 -123 -10 -170 -2 -47 -7 -130 -11 -185 -3 -55 -7 -120 -9 -145 -18
-206 -28 -759 -15 -775 7 -9 7 -21 0 -39 -12 -33 -1 -33 24 0 12 17 22 55 27
108 5 44 14 110 19 146 20 122 28 211 34 380 2 63 7 138 10 165 8 69 16 213
21 382 3 77 7 148 11 156 3 8 0 18 -6 22 -8 5 -8 10 0 20 7 8 12 58 13 119 1
58 4 106 7 106 3 0 6 28 6 63 0 34 4 94 7 132 7 75 15 199 22 360 2 55 7 150
11 210 3 61 7 166 8 235 1 69 5 131 9 137 4 6 3 14 -3 18 -6 4 -8 10 -5 14 5
9 14 181 20 411 5 165 14 385 30 695 3 61 8 180 10 265 3 85 8 261 12 390 12
376 7 1310 -6 1323 -8 8 -11 -9 -12 -63z"/>
<path d="M3781 6764 c0 -11 3 -14 6 -6 3 7 2 16 -1 19 -3 4 -6 -2 -5 -13z"/>
<path d="M3772 6700 c0 -14 2 -19 5 -12 2 6 2 18 0 25 -3 6 -5 1 -5 -13z"/>
<path d="M6630 6567 c0 -5 21 -56 46 -115 25 -59 84 -210 131 -337 47 -126 96
-251 109 -277 13 -25 33 -81 45 -125 51 -186 58 -207 58 -186 2 54 -41 228
-82 333 -24 63 -50 133 -57 155 -40 126 -250 589 -250 552z"/>
<path d="M4490 5889 c-1 -18 -29 -221 -69 -489 -45 -305 -51 -345 -72 -465
-19 -112 -56 -358 -64 -430 -3 -22 -10 -60 -15 -85 -6 -25 -17 -88 -25 -140
-21 -143 -64 -403 -81 -505 -9 -49 -17 -101 -19 -115 -2 -14 -11 -61 -20 -105
-9 -44 -19 -102 -21 -130 -4 -56 -7 -74 -17 -125 -4 -19 -9 -48 -11 -65 -2
-16 -9 -61 -16 -100 -6 -38 -13 -83 -15 -100 -1 -16 -4 -30 -5 -30 -2 0 -7
-33 -15 -100 -3 -27 -10 -63 -16 -78 -7 -15 -9 -30 -6 -33 3 -3 -1 -32 -9 -64
-7 -33 -18 -90 -23 -127 -6 -37 -21 -142 -36 -233 -14 -91 -28 -183 -31 -205
-3 -22 -12 -87 -20 -144 -8 -58 -17 -134 -20 -170 -3 -36 -7 -82 -9 -102 -1
-20 -5 -45 -8 -55 -4 -11 -9 -53 -12 -94 -3 -41 -7 -91 -10 -110 -11 -81 -15
-120 -26 -215 -17 -161 -18 -165 -9 -160 4 3 10 17 13 32 3 16 16 60 30 98 14
39 28 84 31 102 4 18 11 45 17 60 6 15 12 42 14 58 6 54 25 189 35 240 5 28
12 62 14 78 3 15 7 35 10 45 6 19 25 163 31 232 2 25 10 86 18 135 19 119 86
559 92 610 3 22 10 65 17 95 6 30 13 62 14 70 2 8 19 125 38 260 19 135 42
295 50 355 9 61 18 126 21 145 5 42 22 172 29 220 3 19 10 71 16 115 6 44 16
105 21 135 5 30 11 66 13 80 11 81 37 288 46 365 5 50 17 140 25 200 8 61 17
137 20 171 3 33 8 72 10 85 3 13 7 56 10 94 3 39 8 81 10 95 3 14 7 50 10 80
3 30 9 87 15 125 15 104 40 398 35 403 -3 3 -5 -1 -5 -9z"/>
<path d="M6880 5786 c0 -8 4 -17 9 -20 5 -4 7 3 4 14 -6 23 -13 26 -13 6z"/>
<path d="M6756 5675 c6 -37 128 -279 190 -377 14 -22 32 -57 40 -77 l14 -36
-4 36 c-5 42 -67 175 -122 264 -21 33 -57 98 -81 145 -38 74 -42 80 -37 45z"/>
<path d="M6776 4725 c21 -34 119 -164 214 -280 36 -44 73 -92 82 -105 9 -14
17 -20 17 -13 1 14 -146 221 -208 291 -98 114 -124 139 -105 107z"/>
<path d="M5521 4656 c-1 -20 32 -231 54 -346 8 -41 24 -131 35 -200 12 -69 23
-136 26 -150 2 -14 7 -47 10 -75 6 -39 9 -45 16 -30 6 15 7 11 3 -12 -6 -40 4
-95 16 -87 5 3 5 13 -1 24 -5 10 -10 24 -10 32 0 16 25 -20 33 -47 4 -11 4 -4
2 15 -3 19 -12 60 -20 89 -8 30 -22 105 -30 165 -9 61 -29 172 -45 246 -16 74
-36 169 -44 210 -24 112 -44 187 -45 166z"/>
<path d="M3835 4588 c3 -40 8 -85 10 -100 3 -16 0 -28 -6 -28 -8 0 -8 -5 1
-14 10 -13 16 -50 20 -116 1 -13 2 -13 9 0 14 25 -18 330 -35 330 -2 0 -1 -33
1 -72z"/>
<path d="M3744 4583 c8 -19 63 -301 64 -323 0 -8 5 -35 10 -60 l10 -45 1 45
c2 92 -64 400 -86 400 -3 0 -2 -8 1 -17z"/>
<path d="M5445 4573 c4 -10 15 -65 26 -123 28 -153 55 -287 72 -355 8 -33 18
-82 22 -110 8 -63 96 -539 100 -543 9 -10 14 80 6 118 -33 156 -53 265 -66
352 -8 54 -24 138 -35 186 -11 48 -38 166 -59 262 -40 176 -55 230 -67 230 -3
0 -3 -8 1 -17z"/>
<path d="M6780 4565 c0 -16 83 -130 166 -225 16 -19 61 -75 98 -123 37 -49 70
-86 73 -83 3 3 -21 42 -53 88 -104 151 -284 367 -284 343z"/>
<path d="M6826 4343 c26 -38 66 -90 89 -118 22 -27 67 -85 100 -128 70 -93 90
-109 51 -41 -52 90 -259 354 -278 354 -5 0 12 -30 38 -67z"/>
<path d="M3720 4348 c0 -9 6 -33 14 -54 7 -22 23 -93 36 -159 23 -124 36 -164
27 -85 -11 98 -29 185 -49 243 -23 68 -28 78 -28 55z"/>
<path d="M5440 4243 c29 -145 44 -235 75 -433 50 -324 77 -470 88 -470 15 0 3
112 -32 300 -16 91 -35 201 -40 245 -15 111 -30 186 -57 289 -24 91 -48 140
-34 69z"/>
<path d="M6818 4214 c6 -11 50 -66 97 -123 47 -58 103 -127 123 -154 20 -28
38 -44 40 -38 6 19 -76 133 -169 236 -80 89 -111 116 -91 79z"/>
<path d="M5395 4048 c2 -7 14 -96 25 -198 23 -205 54 -393 75 -461 l14 -44 0
56 c1 31 -8 108 -19 170 -11 63 -26 164 -35 224 -19 141 -46 265 -56 265 -5 0
-6 -6 -4 -12z"/>
<path d="M7756 3535 c20 -33 53 -80 73 -105 21 -25 61 -81 91 -125 29 -44 87
-123 129 -175 42 -52 93 -117 112 -145 103 -145 173 -241 182 -250 32 -33
-128 225 -196 315 -27 36 -95 126 -150 200 -55 74 -128 167 -161 205 -34 39
-74 86 -89 105 -22 28 -20 22 9 -25z"/>
<path d="M6501 3575 c-1 -5 11 -55 25 -110 15 -55 29 -111 31 -125 6 -30 110
-380 124 -417 11 -28 83 -299 107 -403 8 -36 17 -60 19 -53 6 18 -53 315 -81
408 -14 44 -45 145 -69 225 -25 80 -54 179 -66 220 -23 82 -90 271 -90 255z"/>
<path d="M7705 3380 c24 -48 141 -218 175 -255 63 -68 243 -335 226 -335 -3 0
4 -10 15 -22 11 -13 47 -57 79 -98 74 -94 179 -206 154 -165 -9 17 -54 80
-100 142 -45 61 -90 126 -100 145 -45 88 -200 300 -278 383 -16 16 -60 73 -99
125 -83 113 -95 126 -72 80z"/>
<path d="M6450 3360 c0 -15 72 -247 120 -385 42 -121 85 -259 115 -369 14 -54
35 -120 45 -147 11 -26 26 -79 35 -116 8 -37 20 -81 26 -96 7 -15 9 -30 7 -33
-7 -6 -59 102 -91 191 -76 208 -143 370 -199 477 -34 66 -64 116 -66 110 -1
-5 29 -78 67 -161 39 -84 94 -220 122 -304 29 -84 73 -199 99 -257 46 -102 96
-234 147 -390 37 -114 44 -124 39 -59 -2 31 -27 121 -56 205 -29 82 -53 165
-55 184 -6 87 -114 509 -166 652 -23 62 -56 156 -74 208 -17 52 -39 109 -48
126 -9 18 -28 65 -41 105 -14 41 -26 67 -26 59z"/>
<path d="M5143 3328 c8 -22 147 -635 203 -898 14 -63 40 -200 60 -305 19 -104
37 -198 40 -208 10 -32 22 -8 18 35 -23 264 -48 408 -118 688 -77 308 -191
700 -202 700 -4 0 -4 -6 -1 -12z"/>
<path d="M7800 3093 c0 -5 9 -18 21 -29 11 -10 43 -49 71 -86 50 -69 78 -95
37 -35 -57 81 -129 165 -129 150z"/>
<path d="M7721 3050 c20 -41 94 -135 199 -250 22 -25 73 -90 113 -145 39 -55
113 -142 164 -195 94 -98 131 -119 65 -38 -20 26 -84 106 -142 180 -57 73
-143 174 -191 223 -83 87 -175 193 -212 245 -12 18 -11 13 4 -20z"/>
<path d="M5081 3022 c-1 -14 87 -369 154 -627 19 -71 45 -182 59 -245 13 -63
38 -178 55 -255 17 -77 36 -175 43 -217 6 -43 15 -78 20 -78 41 0 -67 580
-187 999 -52 183 -143 449 -144 423z"/>
<path d="M3694 2995 c15 -53 65 -320 76 -400 13 -101 60 -337 67 -345 9 -8
-16 182 -48 375 -21 126 -75 350 -91 375 -7 11 -8 10 -4 -5z"/>
<path d="M7092 2889 c236 -273 247 -285 222 -241 -19 33 -192 235 -239 278
-45 42 -38 26 17 -37z"/>
<path d="M3624 2885 c13 -35 90 -406 105 -510 33 -225 43 -281 52 -290 5 -5 9
4 9 26 0 40 -67 456 -76 471 -3 5 0 16 8 25 7 9 8 14 2 10 -8 -5 -17 17 -28
65 -25 111 -55 206 -68 214 -8 5 -9 1 -4 -11z"/>
<path d="M4993 2825 c6 -19 43 -154 128 -460 23 -82 52 -189 65 -237 12 -47
34 -124 47 -170 14 -45 30 -108 37 -138 6 -30 20 -91 31 -135 10 -44 23 -100
29 -125 16 -74 1 150 -16 245 -39 211 -188 710 -284 950 -31 78 -48 111 -37
70z"/>
<path d="M7835 2810 c63 -125 405 -567 405 -524 0 14 -49 88 -61 92 -5 2 -9 7
-9 12 0 4 -13 22 -28 38 -16 17 -57 68 -91 114 -85 115 -213 281 -224 293 -5
6 -1 -6 8 -25z"/>
<path d="M7090 2794 c0 -7 41 -61 91 -120 137 -162 169 -198 169 -187 0 31
-259 336 -260 307z"/>
<path d="M3580 2718 c0 -19 35 -197 65 -327 44 -195 63 -311 65 -411 2 -48 4
-59 10 -40 18 57 9 183 -25 355 -27 132 -84 381 -94 408 -11 29 -21 35 -21 15z"/>
<path d="M7131 2603 c29 -38 84 -104 124 -148 39 -44 84 -97 99 -118 33 -44
45 -43 21 3 -13 25 -112 150 -135 170 -3 3 -36 40 -74 83 -38 42 -72 77 -77
77 -5 0 14 -30 42 -67z"/>
<path d="M7790 2637 c0 -10 112 -166 195 -272 69 -88 155 -176 155 -158 0 17
-105 154 -201 264 -46 52 -99 113 -116 135 -18 21 -33 35 -33 31z"/>
<path d="M3510 2582 c0 -7 7 -29 16 -50 14 -33 75 -255 94 -342 4 -19 18 -80
30 -135 27 -124 42 -161 34 -85 -9 88 -72 366 -104 462 -30 90 -69 173 -70
150z"/>
<path d="M4955 2513 c38 -112 241 -739 282 -873 62 -204 51 -87 -18 195 -10
44 -35 121 -54 170 -19 50 -68 180 -109 291 -68 186 -110 284 -121 284 -2 0 7
-30 20 -67z"/>
<path d="M6431 2558 c-2 -14 61 -142 102 -211 24 -39 107 -197 183 -350 185
-372 194 -344 14 44 -75 162 -151 299 -234 425 -23 34 -46 70 -53 80 -6 11
-12 16 -12 12z"/>
<path d="M7141 2473 c25 -35 170 -185 175 -180 6 5 -128 152 -165 182 l-26 20
16 -22z"/>
<path d="M3450 2422 c0 -5 9 -35 20 -68 12 -32 29 -98 40 -146 10 -48 28 -118
40 -155 24 -76 60 -251 60 -289 0 -13 5 -24 11 -24 18 0 4 149 -25 260 -53
208 -87 321 -112 374 -25 54 -34 66 -34 48z"/>
<path d="M6791 2404 c0 -11 3 -14 6 -6 3 7 2 16 -1 19 -3 4 -6 -2 -5 -13z"/>
<path d="M6801 2324 c1 -16 5 -40 9 -54 6 -17 7 -9 3 25 -6 56 -14 74 -12 29z"/>
<path d="M4898 2309 c7 -10 35 -82 62 -160 51 -151 88 -254 110 -304 26 -62
29 -71 41 -115 6 -25 15 -50 21 -57 5 -7 7 -17 3 -23 -3 -5 0 -10 7 -10 8 0
23 -19 33 -42 35 -79 26 -21 -16 108 -47 145 -165 448 -209 533 -15 32 -37 64
-47 72 -16 13 -17 12 -5 -2z"/>
<path d="M3340 2199 c0 -18 127 -439 160 -529 l20 -55 -4 61 c-3 33 -21 112
-40 176 -38 125 -135 373 -136 347z"/>
<path d="M6500 2176 c0 -10 68 -144 95 -187 13 -20 49 -85 80 -145 65 -126 98
-168 66 -86 -31 77 -61 134 -150 282 -82 135 -91 149 -91 136z"/>
<path d="M4825 2013 c87 -210 170 -394 173 -385 10 30 -161 422 -184 422 -2 0
3 -17 11 -37z"/>
<path d="M3210 1987 c0 -7 101 -227 127 -277 13 -25 13 -25 13 -2 0 26 -76
192 -114 248 -14 21 -26 35 -26 31z"/>
<path d="M6570 1865 c18 -33 37 -64 42 -70 15 -15 -38 87 -57 110 -9 11 -2 -7
15 -40z"/>
<path d="M8820 1137 c-63 -30 -135 -66 -160 -82 -25 -16 -48 -29 -51 -30 -3 0
-13 -8 -23 -18 -10 -9 -22 -15 -27 -12 -5 4 -9 1 -9 -5 0 -6 -4 -8 -10 -5 -19
12 -9 23 45 50 30 14 55 30 55 35 0 4 -18 0 -40 -11 -21 -10 -43 -19 -48 -19
-13 0 -26 -29 -31 -65 -1 -5 -6 -3 -11 5 -8 13 -10 13 -10 -1 0 -23 -38 -31
-51 -11 -8 14 -9 14 -4 -4 4 -17 0 -23 -17 -27 -13 -3 -61 -21 -108 -41 -47
-20 -93 -35 -102 -32 -11 2 -15 -1 -11 -10 3 -9 -2 -14 -17 -14 -11 0 -18 -4
-15 -10 3 -5 15 -10 27 -10 20 0 215 53 253 69 63 26 77 31 86 26 5 -4 9 1 9
11 0 12 3 14 13 6 10 -8 16 -6 26 10 11 17 15 18 22 7 7 -12 9 -12 9 1 0 14
189 140 210 140 5 0 10 3 10 8 0 4 20 20 44 35 45 28 75 57 60 57 -5 0 -61
-24 -124 -53z"/>
<path d="M8242 1160 c-12 -5 -29 -7 -37 -4 -9 4 -15 0 -15 -7 0 -11 -3 -11
-11 1 -8 12 -9 10 -4 -7 5 -18 2 -21 -20 -19 -19 3 -25 -1 -25 -15 0 -18 1
-18 34 0 19 11 37 17 40 14 3 -4 6 -1 6 5 0 7 6 12 13 12 7 0 22 7 33 15 22
16 19 18 -14 5z"/>
<path d="M2935 1128 c-33 -10 -78 -23 -100 -28 -22 -4 -80 -17 -130 -29 -49
-11 -91 -18 -94 -15 -11 10 18 24 69 34 54 10 79 24 67 36 -10 10 -164 -33
-195 -54 -26 -19 -109 -48 -169 -58 -53 -9 -213 -66 -208 -73 2 -5 37 0 77 10
40 10 87 21 103 23 17 3 62 12 101 20 73 15 180 34 244 42 91 12 320 90 320
109 0 8 -22 4 -85 -17z m-342 -73 c0 -6 -7 -11 -16 -13 -12 -3 -15 1 -11 13 7
17 25 17 27 0z m-43 -15 c0 -5 -5 -10 -11 -10 -5 0 -7 5 -4 10 3 6 8 10 11 10
2 0 4 -4 4 -10z"/>
<path d="M2053 1095 c-79 -24 -147 -47 -153 -50 -24 -15 -7 -21 33 -12 77 17
297 89 303 98 10 17 -41 7 -183 -36z"/>
<path d="M2330 1089 c-80 -22 -171 -51 -202 -63 -38 -16 -58 -20 -61 -12 -2 6
-9 1 -16 -12 -9 -17 -9 -22 1 -22 31 0 488 137 488 146 0 13 -84 -2 -210 -37z"/>
<path d="M8590 1095 c-7 -9 -11 -17 -9 -20 3 -2 10 5 17 15 14 24 10 26 -8 5z"/>
<path d="M1605 1071 c-55 -9 -99 -20 -99 -26 2 -11 46 -9 109 6 22 4 54 9 71
9 17 0 37 7 44 15 16 19 10 19 -125 -4z"/>
<path d="M9055 1061 c-73 -16 -170 -44 -220 -66 -49 -20 -100 -37 -112 -37
-13 0 -20 -4 -17 -9 3 -5 0 -9 -6 -9 -30 0 -150 -74 -138 -85 3 -3 31 4 63 15
31 11 61 17 66 14 5 -3 9 -1 9 4 0 5 15 13 33 17 17 4 34 8 37 9 3 1 11 5 18
9 6 5 12 6 12 3 0 -3 30 8 66 24 77 35 74 34 74 14 0 -8 4 -13 10 -9 5 3 6 13
3 22 -5 12 -2 15 10 10 11 -4 17 -1 17 8 0 8 6 15 14 15 7 0 26 7 42 14 15 8
31 13 36 10 4 -3 8 0 8 5 0 15 30 14 30 -1 0 -7 5 -5 11 5 6 9 13 15 17 13 4
-2 19 4 32 15 14 10 23 18 20 18 -3 0 -63 -13 -135 -28z"/>
<path d="M8368 1063 c7 -3 16 -2 19 1 4 3 -2 6 -13 5 -11 0 -14 -3 -6 -6z"/>
<path d="M9345 1041 c-9 -8 -221 -77 -261 -84 -10 -2 -28 -7 -39 -11 -75 -28
-125 -46 -160 -57 -70 -22 -92 -57 -24 -39 19 5 49 12 68 15 18 3 88 26 155
51 66 25 141 53 166 62 25 9 47 20 48 25 2 4 10 7 18 7 7 0 28 9 46 20 27 16
29 20 13 20 -12 0 -25 -4 -30 -9z"/>
<path d="M8280 1020 c-9 -6 -10 -10 -3 -10 6 0 15 5 18 10 8 12 4 12 -15 0z"/>
<path d="M9620 999 c-19 -4 -75 -17 -125 -28 -138 -30 -198 -46 -225 -61 -50
-28 7 -21 182 21 95 23 186 44 202 48 33 7 48 32 19 30 -10 -1 -34 -5 -53 -10z"/>
<path d="M5923 725 c-11 -8 -23 -12 -25 -9 -3 3 -8 -2 -11 -9 -7 -18 18 -13
47 9 26 19 16 28 -11 9z"/>
<path d="M7295 706 c-127 -45 -208 -83 -200 -96 4 -7 11 -8 18 -1 7 5 57 23
112 40 102 32 165 63 165 81 0 5 -1 9 -2 9 -2 -1 -43 -16 -93 -33z"/>
<path d="M7540 736 c0 -2 7 -7 16 -10 8 -3 12 -2 9 4 -6 10 -25 14 -25 6z"/>
<path d="M3175 710 c-3 -6 1 -7 9 -4 18 7 21 14 7 14 -6 0 -13 -4 -16 -10z"/>
<path d="M5675 700 c-3 -5 1 -10 10 -10 9 0 13 5 10 10 -3 6 -8 10 -10 10 -2
0 -7 -4 -10 -10z"/>
<path d="M5495 680 c-3 -6 1 -7 9 -4 18 7 21 14 7 14 -6 0 -13 -4 -16 -10z"/>
<path d="M7517 669 c-82 -20 -150 -49 -130 -56 17 -6 210 54 218 67 8 13 6 12
-88 -11z"/>
<path d="M5750 659 c0 -5 5 -7 10 -4 6 3 10 8 10 11 0 2 -4 4 -10 4 -5 0 -10
-5 -10 -11z"/>
<path d="M5725 650 c3 -5 8 -10 11 -10 2 0 4 5 4 10 0 6 -5 10 -11 10 -5 0 -7
-4 -4 -10z"/>
<path d="M5598 599 c-54 -26 -98 -52 -98 -57 0 -5 17 -1 38 9 43 21 135 62
142 63 21 4 43 38 23 35 -5 -1 -52 -23 -105 -50z"/>
</g>
</svg>
