<svg class="soc-diagram soc-chart" viewBox="0 0 680 262" role="img" aria-labelledby="xi-title xi-desc" xmlns="http://www.w3.org/2000/svg">
<title id="xi-title">Spin–orbit constants by element</title>
<desc id="xi-desc">Fe 59.65 meV, Co 74.12 meV, Cu 110.44 meV, Pd 191.36 meV, Pt 537.18 meV, Au 615.05 meV (Blanco-Rey, Cerdá and Arnau 2019, Table 3).</desc>
<rect width="680" height="262" fill="#fff"/>
<text class="d-h" x="20" y="28">Spin–orbit strength grows with atomic number</text>
<text class="d-s" x="20" y="48">Valence spin–orbit constant ξ (meV) used in one first-principles study; 3d → 4d → 5d</text>
<line x1="64" x2="660" y1="214.0" y2="214.0" stroke="#eef0f3"/><text class="d-s" x="54" y="218.0" text-anchor="end">0</text><line x1="64" x2="660" y1="174.0" y2="174.0" stroke="#eef0f3"/><text class="d-s" x="54" y="178.0" text-anchor="end">200</text><line x1="64" x2="660" y1="134.0" y2="134.0" stroke="#eef0f3"/><text class="d-s" x="54" y="138.0" text-anchor="end">400</text><line x1="64" x2="660" y1="94.0" y2="94.0" stroke="#eef0f3"/><text class="d-s" x="54" y="98.0" text-anchor="end">600</text>
<rect class="soc-vbar" x="91.7" y="202.1" width="44" height="11.9" fill="#4b515b" data-y="202.1" data-h="11.9"/><text class="d-m soc-count" x="113.7" y="194.1" text-anchor="middle" data-val="60">60</text><text class="d-m" x="113.7" y="234" text-anchor="middle">Fe</text><text class="d-s" x="113.7" y="250" text-anchor="middle">Z = 26</text>
<rect class="soc-vbar" x="191.0" y="199.2" width="44" height="14.8" fill="#4b515b" data-y="199.2" data-h="14.8"/><text class="d-m soc-count" x="213.0" y="191.2" text-anchor="middle" data-val="74">74</text><text class="d-m" x="213.0" y="234" text-anchor="middle">Co</text><text class="d-s" x="213.0" y="250" text-anchor="middle">Z = 27</text>
<rect class="soc-vbar" x="290.3" y="191.9" width="44" height="22.1" fill="#4b515b" data-y="191.9" data-h="22.1"/><text class="d-m soc-count" x="312.3" y="183.9" text-anchor="middle" data-val="110">110</text><text class="d-m" x="312.3" y="234" text-anchor="middle">Cu</text><text class="d-s" x="312.3" y="250" text-anchor="middle">Z = 29</text>
<rect class="soc-vbar" x="389.7" y="175.7" width="44" height="38.3" fill="#4b515b" data-y="175.7" data-h="38.3"/><text class="d-m soc-count" x="411.7" y="167.7" text-anchor="middle" data-val="191">191</text><text class="d-m" x="411.7" y="234" text-anchor="middle">Pd</text><text class="d-s" x="411.7" y="250" text-anchor="middle">Z = 46</text>
<rect class="soc-vbar" x="489.0" y="106.6" width="44" height="107.4" fill="#4b515b" data-y="106.6" data-h="107.4"/><text class="d-m soc-count" x="511.0" y="98.6" text-anchor="middle" data-val="537">537</text><text class="d-m" x="511.0" y="234" text-anchor="middle">Pt</text><text class="d-s" x="511.0" y="250" text-anchor="middle">Z = 78</text>
<rect class="soc-vbar" x="588.3" y="91.0" width="44" height="123.0" fill="#4b515b" data-y="91.0" data-h="123.0"/><text class="d-m soc-count" x="610.3" y="83.0" text-anchor="middle" data-val="615">615</text><text class="d-m" x="610.3" y="234" text-anchor="middle">Au</text><text class="d-s" x="610.3" y="250" text-anchor="middle">Z = 79</text>
<line x1="64" x2="660" y1="214" y2="214" stroke="#cfd5dd"/>
</svg>
